<svg xmlns="http://www.w3.org/2000/svg" xmlns:xlink="http://www.w3.org/1999/xlink" viewBox="0 0 760 760"><defs><linearGradient id="linear-gradient" x1="380" y1="760" x2="380" gradientUnits="userSpaceOnUse"><stop offset="0.13" stop-color="#7d8589"/><stop offset="0.16" stop-color="#8a9194"/><stop offset="0.27" stop-color="#b6bbbd"/><stop offset="0.36" stop-color="#d7d9da"/><stop offset="0.45" stop-color="#ebebec"/><stop offset="0.5" stop-color="#f2f2f2"/><stop offset="0.72" stop-color="#b0b5b7"/><stop offset="0.87" stop-color="#7d8589"/></linearGradient><linearGradient id="linear-gradient-2" x1="380" y1="662.25" x2="380" y2="97.75" gradientUnits="userSpaceOnUse"><stop offset="0" stop-color="#12419b"/><stop offset="1" stop-color="#030428"/></linearGradient></defs><g id="Layer_2" data-name="Layer 2"><g id="Layer_1-2" data-name="Layer 1"><circle cx="380" cy="380" r="380" fill="url(#linear-gradient)"/><circle cx="380" cy="380" r="282.25" fill="url(#linear-gradient-2)"/><path d="M626.69,379.41a8.17,8.17,0,0,0-8.17-8.17H600.68l19.3-19.3a8.17,8.17,0,1,0-11.56-11.56l-30.86,30.86H521.33L558,334.59A8.17,8.17,0,1,0,546.43,323l-48.21,48.21H443.08l-19.79-19.79h40.33a8.18,8.18,0,1,0,0-16.35H436.33l18.87-18.86h43.63a8.18,8.18,0,0,0,0-16.35H471.54L490.4,281H534a8.18,8.18,0,0,0,0-16.35H506.75l18.86-18.86h43.64a8.17,8.17,0,0,0,0-16.34H542l12.61-12.62A8.17,8.17,0,1,0,543,205.3L530.4,217.92V190.63a8.17,8.17,0,1,0-16.34,0v43.63l-18.87,18.87V225.84a8.17,8.17,0,1,0-16.34,0v43.63L460,288.33V261a8.17,8.17,0,0,0-16.34,0v43.64l-18.86,18.86V296.25a8.18,8.18,0,0,0-16.35,0v40.34l-19.79-19.8V261.66l48.21-48.21a8.17,8.17,0,1,0-11.56-11.56l-36.65,36.65V182.31l30.85-30.85a8.17,8.17,0,1,0-11.56-11.56l-19.29,19.3V141.36a8.18,8.18,0,1,0-16.35,0V159.2L353,139.9a8.17,8.17,0,0,0-11.55,11.56l30.85,30.85v56.23l-36.65-36.65a8.17,8.17,0,0,0-11.56,11.56l48.21,48.21v55.13l-19.79,19.8V296.25a8.18,8.18,0,0,0-16.35,0v27.29l-18.86-18.86V261a8.18,8.18,0,0,0-16.35,0v27.29l-18.86-18.86V225.84a8.17,8.17,0,1,0-16.34,0v27.29l-18.87-18.87V190.63a8.17,8.17,0,1,0-16.34,0v27.29L217.91,205.3a8.17,8.17,0,0,0-11.56,11.56L219,229.48H191.68a8.17,8.17,0,0,0,0,16.34h43.63l18.87,18.86H226.89a8.18,8.18,0,1,0,0,16.35h43.63l18.87,18.86H262.1a8.18,8.18,0,1,0,0,16.35h43.63l18.86,18.86H297.3a8.18,8.18,0,0,0,0,16.35h40.34l-19.8,19.79H262.71L214.5,323a8.17,8.17,0,1,0-11.56,11.56l36.65,36.65H183.36l-30.85-30.86A8.17,8.17,0,1,0,141,351.94l19.3,19.3H142.41a8.18,8.18,0,0,0,0,16.35h17.84L141,406.88a8.17,8.17,0,0,0,11.56,11.56l30.85-30.85h56.23l-36.65,36.65A8.17,8.17,0,0,0,214.5,435.8l48.21-48.21h55.13l19.8,19.79H297.3a8.17,8.17,0,0,0,0,16.34h27.3l-18.87,18.87H262.1a8.17,8.17,0,1,0,0,16.34h27.29L270.52,477.8H226.89a8.17,8.17,0,1,0,0,16.34h27.29L235.31,513H191.68a8.18,8.18,0,0,0,0,16.35H219L206.35,542a8.17,8.17,0,1,0,11.56,11.56l12.62-12.61V568.2a8.17,8.17,0,0,0,16.34,0V524.56l18.87-18.86V533a8.17,8.17,0,1,0,16.34,0V489.35l18.86-18.86v27.29a8.18,8.18,0,0,0,16.35,0V454.14l18.86-18.86v27.29a8.18,8.18,0,0,0,16.35,0V422.24L372.29,442v55.14l-48.21,48.21a8.17,8.17,0,1,0,11.56,11.56l36.65-36.66v56.23l-30.85,30.86A8.17,8.17,0,0,0,353,618.92l19.3-19.29v17.84a8.18,8.18,0,0,0,16.35,0V599.63l19.29,19.29a8.17,8.17,0,1,0,11.56-11.55l-30.85-30.86V520.28l36.65,36.66a8.17,8.17,0,1,0,11.56-11.56l-48.21-48.21V442l19.79-19.79v40.33a8.18,8.18,0,0,0,16.35,0V435.28l18.86,18.86v43.64a8.17,8.17,0,1,0,16.34,0V470.49l18.87,18.86V533a8.17,8.17,0,0,0,16.34,0V505.7l18.87,18.86V568.2a8.17,8.17,0,1,0,16.34,0V540.91L543,553.52A8.17,8.17,0,1,0,554.57,542L542,529.35h27.29a8.18,8.18,0,0,0,0-16.35H525.61l-18.86-18.86H534a8.17,8.17,0,1,0,0-16.34H490.4l-18.86-18.87h27.29a8.17,8.17,0,0,0,0-16.34H455.2l-18.87-18.87h27.29a8.17,8.17,0,1,0,0-16.34H423.29l19.79-19.79h55.14l48.21,48.21A8.17,8.17,0,1,0,558,424.24l-36.66-36.65h56.23l30.86,30.85A8.17,8.17,0,1,0,620,406.88l-19.3-19.29h17.84A8.17,8.17,0,0,0,626.69,379.41ZM380.46,427.09l-47.67-47.68,47.67-47.67L420,371.24l8.17,8.17Z" fill="#fff"/></g></g></svg>